<svg xmlns="http://www.w3.org/2000/svg" width="51.477" height="54.647" viewBox="0 0 51.477 54.647">
  <g id="admin-with-cogwheels" transform="translate(-13.766)">
    <path id="Path_425" data-name="Path 425" d="M234.441,93.877c-.07-1.3-1.4-1.082-2.7-1.082A11.509,11.509,0,0,1,234.441,93.877Z" transform="translate(-192.873 -82.097)" fill="#545766"/>
    <path id="Path_426" data-name="Path 426" d="M93.1,73.928a5.38,5.38,0,0,0-3.335,9.6,11.649,11.649,0,0,1,7.7-7.35A5.384,5.384,0,0,0,93.1,73.928Z" transform="translate(-65.429 -65.415)" fill="#545766"/>
    <path id="Path_427" data-name="Path 427" d="M17.246,17.113a11.194,11.194,0,0,0,.789,1.893l-1.658,1.659a1.142,1.142,0,0,0,0,1.614L19.3,25.2a1.147,1.147,0,0,0,1.615,0l1.656-1.659c.248.132.524.212.781.326,0-.019,0-.038,0-.057a17,17,0,0,1,.433-3.835,7.209,7.209,0,1,1,10.157-9.6,12.571,12.571,0,0,1,4.074.119,10.882,10.882,0,0,0-.7-1.691l1.658-1.659a1.136,1.136,0,0,0,0-1.613l-2.92-2.921a1.138,1.138,0,0,0-1.611,0L32.771,4.27a10.681,10.681,0,0,0-1.894-.786V1.14A1.138,1.138,0,0,0,29.739,0H25.606a1.142,1.142,0,0,0-1.141,1.14V3.484a10.8,10.8,0,0,0-1.894.786L20.914,2.613a1.141,1.141,0,0,0-1.613,0L16.377,5.533a1.145,1.145,0,0,0,0,1.614l1.658,1.659A10.914,10.914,0,0,0,17.25,10.7H14.907a1.141,1.141,0,0,0-1.141,1.142v4.133a1.141,1.141,0,0,0,1.141,1.141Z" fill="#545766"/>
    <path id="Path_428" data-name="Path 428" d="M290.11,255.823a5.871,5.871,0,1,0-5.917-10.133,21.226,21.226,0,0,1-2.511,6.011A17.653,17.653,0,0,1,290.11,255.823Z" transform="translate(-237.065 -216.596)" fill="#545766"/>
    <path id="Path_429" data-name="Path 429" d="M322.382,178.426a1.232,1.232,0,0,0-1.23-1.231h-2.528a11.679,11.679,0,0,0-.851-2.044l1.79-1.79a1.229,1.229,0,0,0,0-1.741l-3.151-3.152a1.228,1.228,0,0,0-1.74,0l-1.794,1.791a11.5,11.5,0,0,0-2.044-.849v-2.528a1.229,1.229,0,0,0-1.229-1.23h-4.458a1.213,1.213,0,0,0-.776.3,16.764,16.764,0,0,1,.581,4.439,21.34,21.34,0,0,1-.225,3.043,7.62,7.62,0,0,1,2.648-.5,7.711,7.711,0,0,1,4.17,14.207,17.612,17.612,0,0,1,3.589,5.985,1.262,1.262,0,0,0,.408.079,1.229,1.229,0,0,0,.871-.36l3.153-3.152a1.238,1.238,0,0,0,0-1.741l-1.794-1.791a11.628,11.628,0,0,0,.851-2.044h2.528a1.234,1.234,0,0,0,1.232-1.231Z" transform="translate(-257.141 -146.577)" fill="#545766"/>
    <path id="Path_430" data-name="Path 430" d="M60.833,336.908a14.9,14.9,0,0,0-12.795-10.02,9.778,9.778,0,0,1-7.108,3.38,9.773,9.773,0,0,1-7.106-3.38,14.9,14.9,0,0,0-12.8,10.021l-1.057,3.111a2.932,2.932,0,0,0,2.775,3.873H59.115a2.93,2.93,0,0,0,2.775-3.873Z" transform="translate(-5.351 -289.246)" fill="#545766"/>
    <path id="Path_431" data-name="Path 431" d="M120.842,123.351c0,6.977,4.247,14.463,9.483,14.463s9.485-7.486,9.485-14.463C139.81,108.888,120.842,108.86,120.842,123.351Z" transform="translate(-94.746 -99.539)" fill="#545766"/>
  </g>
</svg>
