<svg id="bullet-form" xmlns="http://www.w3.org/2000/svg" width="49.321" height="49.321" viewBox="0 0 49.321 49.321">
  <path id="Path_498" data-name="Path 498" d="M37.284,9H11.6A3.6,3.6,0,0,0,8,12.6v5.138a3.6,3.6,0,0,0,3.6,3.6H37.284a3.6,3.6,0,0,0,3.6-3.6V12.6A3.6,3.6,0,0,0,37.284,9Z" transform="translate(8.44 9.495)" fill="#545766"/>
  <path id="Path_499" data-name="Path 499" d="M37.284,18H11.6A3.6,3.6,0,0,0,8,21.6v5.138a3.6,3.6,0,0,0,3.6,3.6H37.284a3.6,3.6,0,0,0,3.6-3.6V21.6A3.6,3.6,0,0,0,37.284,18Z" transform="translate(8.44 18.99)" fill="#545766"/>
  <ellipse id="Ellipse_3" data-name="Ellipse 3" cx="6" cy="6.5" rx="6" ry="6.5" transform="translate(0 18)" fill="#545766"/>
  <path id="Path_500" data-name="Path 500" d="M37.284,0H11.6A3.6,3.6,0,0,0,8,3.6V8.734a3.6,3.6,0,0,0,3.6,3.6H37.284a3.6,3.6,0,0,0,3.6-3.6V3.6A3.6,3.6,0,0,0,37.284,0Z" transform="translate(8.44)" fill="#545766"/>
  <circle id="Ellipse_4" data-name="Ellipse 4" cx="6" cy="6" r="6" fill="#545766"/>
  <circle id="Ellipse_5" data-name="Ellipse 5" cx="6" cy="6" r="6" transform="translate(0 37)" fill="#545766"/>
</svg>
