<svg id="statistics" xmlns="http://www.w3.org/2000/svg" width="50.641" height="50.641" viewBox="0 0 50.641 50.641">
  <path id="Path_472" data-name="Path 472" d="M35.451,23.738a4.428,4.428,0,0,0,3.081-1.251l4.392,2.2a4.36,4.36,0,0,0-.054.539,4.451,4.451,0,1,0,8.9,0,4.4,4.4,0,0,0-.446-1.907l5.958-5.958a4.4,4.4,0,0,0,1.907.446,4.456,4.456,0,0,0,4.451-4.451,4.384,4.384,0,0,0-.222-1.318l5.176-3.881a4.448,4.448,0,1,0-1.987-3.7,4.384,4.384,0,0,0,.222,1.318L61.653,9.651a4.432,4.432,0,0,0-6.468,5.609l-5.958,5.958a4.374,4.374,0,0,0-4.988.805l-4.392-2.2a4.36,4.36,0,0,0,.054-.539,4.451,4.451,0,1,0-4.451,4.451Zm0,0" transform="translate(-27.934 0)"/>
  <path id="Path_473" data-name="Path 473" d="M49.157,182.838H47.575V151.484A1.483,1.483,0,0,0,46.091,150H40.157a1.483,1.483,0,0,0-1.484,1.484v31.354H35.706V160.385a1.483,1.483,0,0,0-1.484-1.484H28.288a1.483,1.483,0,0,0-1.484,1.484v22.452H23.837V172.254a1.483,1.483,0,0,0-1.484-1.484H16.419a1.483,1.483,0,0,0-1.484,1.484v10.583H11.968V166.32a1.483,1.483,0,0,0-1.484-1.484H4.55a1.483,1.483,0,0,0-1.484,1.484v16.518H1.484a1.484,1.484,0,0,0,0,2.967H49.157a1.484,1.484,0,0,0,0-2.967Zm0,0" transform="translate(0 -135.164)"/>
</svg>
