<svg id="earth-grid-select-language-button" xmlns="http://www.w3.org/2000/svg" width="50.051" height="50.051" viewBox="0 0 50.051 50.051">
  <g id="language">
    <path id="Path_439" data-name="Path 439" d="M25.025,0A25.025,25.025,0,1,0,50.051,25.025,25.1,25.1,0,0,0,25.025,0ZM42.293,15.015H35.036a39.553,39.553,0,0,0-3.5-9.009A20.143,20.143,0,0,1,42.293,15.015ZM25.025,5.005a33.6,33.6,0,0,1,4.755,10.01h-9.51A36.8,36.8,0,0,1,25.025,5.005ZM5.756,30.031a16.136,16.136,0,0,1-.751-5.005,16.136,16.136,0,0,1,.751-5.005h8.509a33.539,33.539,0,0,0-.25,5.005c0,1.752.25,3.253.25,5.005Zm2,5.005h7.257a39.553,39.553,0,0,0,3.5,9.009A20.143,20.143,0,0,1,7.758,35.036Zm7.257-20.02H7.758A21.092,21.092,0,0,1,18.519,6.006,39.553,39.553,0,0,0,15.015,15.015Zm10.01,30.031a33.6,33.6,0,0,1-4.755-10.01h9.51A36.8,36.8,0,0,1,25.025,45.046Zm5.756-15.015H19.27a33.915,33.915,0,0,1-.5-5.005,33.915,33.915,0,0,1,.5-5.005H31.032a33.915,33.915,0,0,1,.5,5.005A34.545,34.545,0,0,1,30.781,30.031Zm.751,14.014a35.5,35.5,0,0,0,3.5-9.009h7.257A20.143,20.143,0,0,1,31.532,44.045Zm4.5-14.014a33.539,33.539,0,0,0,.25-5.005c0-1.752-.25-3.253-.25-5.005h8.509a16.136,16.136,0,0,1,.751,5.005,16.139,16.139,0,0,1-.751,5.005Z" fill="#545766"/>
  </g>
</svg>
