<svg xmlns="http://www.w3.org/2000/svg" width="50.682" height="57.706" viewBox="0 0 50.682 57.706">
  <g id="Group_280" data-name="Group 280" transform="translate(-47.748 -769)">
    <g id="shopping-cart" transform="translate(47.748 758.914)">
      <g id="Group_275" data-name="Group 275" transform="translate(12.67 57.234)">
        <g id="Group_274" data-name="Group 274">
          <circle id="Ellipse_1" data-name="Ellipse 1" cx="5.279" cy="5.279" r="5.279" fill="#545766"/>
        </g>
      </g>
      <g id="Group_277" data-name="Group 277" transform="translate(0 21.334)">
        <g id="Group_276" data-name="Group 276">
          <path id="Path_406" data-name="Path 406" d="M50.471,28.092a1.1,1.1,0,0,0-.845-.422H9.5l-1.056-5.49a1.4,1.4,0,0,0-1.056-.845H1.056a1.056,1.056,0,0,0,0,2.112H6.546l5.068,25.763a7.676,7.676,0,0,0,7.391,5.913H43.291a1.056,1.056,0,0,0,0-2.112H19.006a4.869,4.869,0,0,1-4.224-2.323l30.832-4.223a.908.908,0,0,0,.845-.845l4.224-16.894A1.043,1.043,0,0,0,50.471,28.092Z" transform="translate(0 -21.334)" fill="#545766"/>
        </g>
      </g>
      <g id="Group_279" data-name="Group 279" transform="translate(33.788 57.234)">
        <g id="Group_278" data-name="Group 278">
          <circle id="Ellipse_2" data-name="Ellipse 2" cx="5.279" cy="5.279" r="5.279" fill="#545766"/>
        </g>
      </g>
    </g>
    <text id="_" data-name="+" transform="translate(65 807)" fill="#545766" font-size="35" font-family="SegoeUI-Semibold, Segoe UI" font-weight="600"><tspan x="0" y="0">+</tspan></text>
  </g>
</svg>
