<svg id="Group_272" data-name="Group 272" xmlns="http://www.w3.org/2000/svg" width="65.338" height="59.287" viewBox="0 0 65.338 59.287">
  <g id="user-shape" transform="translate(6.359 13.26)">
    <g id="person">
      <path id="Path_397" data-name="Path 397" d="M23.013,23.013A11.507,11.507,0,1,0,11.507,11.507,11.54,11.54,0,0,0,23.013,23.013Zm0,5.753C15.246,28.767,0,32.506,0,40.273v5.753H46.027V40.273C46.027,32.506,30.78,28.767,23.013,28.767Z" fill="#545766"/>
    </g>
  </g>
  <path id="Path_399" data-name="Path 399" d="M11.807,12.744A6.371,6.371,0,0,0,15.15,7.16C15.15,3.636,12.437,0,8.912,0,7.673,0,5.32,0,4.339.615,3.751,2.954,1.21,5.333,0,7.276,3.431,7.921,9.244,10.48,11.807,12.744Z" transform="matrix(0.999, -0.035, 0.035, 0.999, 39.593, 32.411)" fill="#545766"/>
  <path id="Path_400" data-name="Path 400" d="M19.8,14.093a1.336,1.336,0,0,0-1.335-1.336H15.719a12.668,12.668,0,0,0-.923-2.217L16.737,8.6a1.333,1.333,0,0,0,0-1.888L13.319,3.292a1.332,1.332,0,0,0-1.887,0L9.487,5.235a12.469,12.469,0,0,0-2.217-.92V1.572A1.333,1.333,0,0,0,5.937.237L3.37.148A9.073,9.073,0,0,0,1.108.069c.407,1.486.384,1.188.251,3.635C.831,6.4.159,6.913,0,8.015c.9-.332,2.5.12,3.519.12A8.364,8.364,0,0,1,8.042,23.544a19.1,19.1,0,0,1,3.893,6.492,1.369,1.369,0,0,0,.442.085,1.333,1.333,0,0,0,.945-.391l3.42-3.419a1.343,1.343,0,0,0,0-1.888L14.8,22.481a12.612,12.612,0,0,0,.923-2.217h2.742A1.338,1.338,0,0,0,19.8,18.928Z" transform="matrix(0.999, -0.035, 0.035, 0.999, 44.501, 22.882)" fill="#545766"/>
  <path id="Path_390" data-name="Path 390" d="M5.582,0A5.572,5.572,0,0,0,2.129,9.941,12.063,12.063,0,0,1,10.1,2.331,5.576,5.576,0,0,0,5.582,0Z" transform="matrix(0.966, -0.259, 0.259, 0.966, 10.798, 13.077)" fill="#545766"/>
  <path id="Path_391" data-name="Path 391" d="M3.6,17.722a11.592,11.592,0,0,0,.817,1.96L2.7,21.4a1.183,1.183,0,0,0,0,1.671L5.729,26.1a1.187,1.187,0,0,0,1.672,0L9.116,24.38c.257.136.543.22.809.337,0-.02,0-.04,0-.059a17.606,17.606,0,0,1,.448-3.971A7.465,7.465,0,1,1,20.89,10.745a13.017,13.017,0,0,1,4.218.123,11.269,11.269,0,0,0-.73-1.751L26.1,7.4a1.176,1.176,0,0,0,0-1.67L23.071,2.7a1.178,1.178,0,0,0-1.668,0L19.68,4.422a11.06,11.06,0,0,0-1.961-.814V1.181A1.179,1.179,0,0,0,16.54,0H12.261a1.183,1.183,0,0,0-1.182,1.181V3.608a11.179,11.179,0,0,0-1.961.814L7.4,2.706a1.181,1.181,0,0,0-1.67,0L2.7,5.729A1.186,1.186,0,0,0,2.7,7.4L4.42,9.118a11.3,11.3,0,0,0-.813,1.96H1.182A1.181,1.181,0,0,0,0,12.261v4.28a1.182,1.182,0,0,0,1.182,1.181Z" transform="matrix(0.966, -0.259, 0.259, 0.966, 0, 6.844)" fill="#545766"/>
</svg>
