<svg xmlns="http://www.w3.org/2000/svg" width="50.107" height="50.3" viewBox="0 0 50.107 50.3">
  <g id="keyboard-buttons-or-visualization-button-of-nine-squares" transform="translate(-1.85)">
    <path id="Path_489" data-name="Path 489" d="M15.5,1.563A1.561,1.561,0,0,0,13.94,0H3.413A1.561,1.561,0,0,0,1.85,1.563V12.1a1.561,1.561,0,0,0,1.563,1.563H13.945A1.561,1.561,0,0,0,15.509,12.1V1.563Z" transform="translate(0)"/>
    <path id="Path_490" data-name="Path 490" d="M365.2,1.563A1.561,1.561,0,0,0,363.64,0H353.113a1.561,1.561,0,0,0-1.563,1.563V12.1a1.561,1.561,0,0,0,1.563,1.563H363.64A1.561,1.561,0,0,0,365.2,12.1Z" transform="translate(-331.476)"/>
    <path id="Path_491" data-name="Path 491" d="M714.9,1.563A1.561,1.561,0,0,0,713.34,0H702.813a1.561,1.561,0,0,0-1.563,1.563V12.1a1.561,1.561,0,0,0,1.563,1.563h10.532a1.561,1.561,0,0,0,1.563-1.563V1.563Z" transform="translate(-662.952)"/>
    <path id="Path_492" data-name="Path 492" d="M15.5,353.163A1.561,1.561,0,0,0,13.94,351.6H3.413a1.561,1.561,0,0,0-1.563,1.563V363.69a1.561,1.561,0,0,0,1.563,1.563H13.945a1.561,1.561,0,0,0,1.563-1.563V353.163Z" transform="translate(0 -333.277)"/>
    <path id="Path_493" data-name="Path 493" d="M365.2,353.163a1.561,1.561,0,0,0-1.563-1.563H353.113a1.561,1.561,0,0,0-1.563,1.563V363.69a1.561,1.561,0,0,0,1.563,1.563H363.64a1.561,1.561,0,0,0,1.563-1.563Z" transform="translate(-331.476 -333.277)"/>
    <path id="Path_494" data-name="Path 494" d="M714.9,353.163a1.561,1.561,0,0,0-1.563-1.563H702.813a1.561,1.561,0,0,0-1.563,1.563V363.69a1.561,1.561,0,0,0,1.563,1.563h10.532a1.561,1.561,0,0,0,1.563-1.563V353.163Z" transform="translate(-662.952 -333.277)"/>
    <path id="Path_495" data-name="Path 495" d="M13.94,703.1H3.413a1.561,1.561,0,0,0-1.563,1.563V715.2a1.561,1.561,0,0,0,1.563,1.563H13.945a1.561,1.561,0,0,0,1.563-1.563V704.663A1.572,1.572,0,0,0,13.94,703.1Z" transform="translate(0 -666.459)"/>
    <path id="Path_496" data-name="Path 496" d="M363.64,703.1H353.113a1.561,1.561,0,0,0-1.563,1.563V715.2a1.561,1.561,0,0,0,1.563,1.563H363.64A1.561,1.561,0,0,0,365.2,715.2V704.663A1.565,1.565,0,0,0,363.64,703.1Z" transform="translate(-331.476 -666.459)"/>
    <path id="Path_497" data-name="Path 497" d="M713.34,703.1H702.813a1.561,1.561,0,0,0-1.563,1.563V715.2a1.561,1.561,0,0,0,1.563,1.563h10.532a1.561,1.561,0,0,0,1.563-1.563V704.663A1.573,1.573,0,0,0,713.34,703.1Z" transform="translate(-662.952 -666.459)"/>
  </g>
</svg>
