<svg id="phone-call-button" xmlns="http://www.w3.org/2000/svg" width="50.806" height="50.806" viewBox="0 0 50.806 50.806">
  <g id="call">
    <path id="Path_461" data-name="Path 461" d="M10.161,22.016A43.942,43.942,0,0,0,28.79,40.645L35,34.435a2.247,2.247,0,0,1,2.823-.565,29.524,29.524,0,0,0,10.161,1.694,2.667,2.667,0,0,1,2.823,2.823v9.6a2.667,2.667,0,0,1-2.823,2.823A47.943,47.943,0,0,1,0,2.823,2.667,2.667,0,0,1,2.823,0H12.7a2.667,2.667,0,0,1,2.823,2.823,31.966,31.966,0,0,0,1.694,10.161,3.476,3.476,0,0,1-.565,2.823Z" fill="#545766"/>
  </g>
</svg>
