<svg id="printing" xmlns="http://www.w3.org/2000/svg" width="70.099" height="65.153" viewBox="0 0 70.099 65.153">
  <g id="Group_302" data-name="Group 302" transform="translate(22.588 52.269)">
    <g id="Group_301" data-name="Group 301">
      <path id="Path_463" data-name="Path 463" d="M187.565,399.834H167.314a2.337,2.337,0,0,0,0,4.673h20.251a2.337,2.337,0,0,0,0-4.673Z" transform="translate(-164.977 -399.834)" fill="#545766"/>
    </g>
  </g>
  <g id="Group_304" data-name="Group 304" transform="translate(22.588 44.899)">
    <g id="Group_303" data-name="Group 303">
      <path id="Path_464" data-name="Path 464" d="M187.565,346.006H167.314a2.337,2.337,0,1,0,0,4.673h20.251a2.337,2.337,0,0,0,0-4.673Z" transform="translate(-164.977 -346.006)" fill="#545766"/>
    </g>
  </g>
  <g id="Group_306" data-name="Group 306" transform="translate(0 0)">
    <g id="Group_305" data-name="Group 305">
      <path id="Path_465" data-name="Path 465" d="M64.647,33.925H57.213V20.4a2.337,2.337,0,0,0-2.337-2.337H15.224A2.337,2.337,0,0,0,12.887,20.4V33.925H5.452A5.458,5.458,0,0,0,0,39.378V62.886a5.458,5.458,0,0,0,5.452,5.452h7.435V80.881a2.337,2.337,0,0,0,2.337,2.337H54.875a2.337,2.337,0,0,0,2.337-2.337V68.338h7.435A5.458,5.458,0,0,0,70.1,62.886V39.378A5.459,5.459,0,0,0,64.647,33.925ZM17.56,22.738H52.539V33.925H17.56ZM52.539,78.544H17.561V59.428H52.539C52.539,60.007,52.539,78.105,52.539,78.544Zm2.337-30.9H48.928a2.337,2.337,0,1,1,0-4.673h5.948a2.337,2.337,0,1,1,0,4.673Z" transform="translate(0 -18.065)" fill="#545766"/>
    </g>
  </g>
</svg>
