<svg id="refresh" xmlns="http://www.w3.org/2000/svg" width="51.578" height="51.578" viewBox="0 0 51.578 51.578">
  <path id="Path_466" data-name="Path 466" d="M6.195,28.167a20.406,20.406,0,0,1-.151-2.378A19.662,19.662,0,0,1,39.036,11.252l-1.743,1.773a1.545,1.545,0,0,0-.393,1.511,1.581,1.581,0,0,0,1.148,1.027c.3.061,10.3,3.281,9.661,3.153a1.528,1.528,0,0,0,1.783-1.783c-.061-.3-2.274-11.405-2.146-10.769a1.5,1.5,0,0,0-2.539-.756L43.327,6.86A25.806,25.806,0,0,0,0,25.789v.06c0,.852.039,1.51.084,2.014a1.511,1.511,0,0,0,1.209,1.346l3.1.621a1.512,1.512,0,0,0,1.8-1.662Zm0,0" transform="translate(0.001 0)" fill="#545766"/>
  <path id="Path_467" data-name="Path 467" d="M68.679,216.087l-3.113-.634a1.512,1.512,0,0,0-1.8,1.664,20.57,20.57,0,0,1,.156,2.393,19.639,19.639,0,0,1-32.992,14.506l1.743-1.743a1.545,1.545,0,0,0,.393-1.511,1.58,1.58,0,0,0-1.148-1.027c-.3-.061-10.3-3.281-9.661-3.153a1.481,1.481,0,0,0-1.36.423,1.505,1.505,0,0,0-.423,1.36l2.146,10.668a1.513,1.513,0,0,0,1.057,1.148,1.452,1.452,0,0,0,1.481-.393l1.451-1.45a25.75,25.75,0,0,0,43.358-18.828v-.091c0-.67-.024-1.327-.08-1.981a1.51,1.51,0,0,0-1.2-1.351Zm0,0" transform="translate(-18.385 -193.72)" fill="#545766"/>
</svg>
