<svg xmlns="http://www.w3.org/2000/svg" width="51.824" height="68.314" viewBox="0 0 51.824 68.314">
  <g id="shield" transform="translate(0)">
    <path id="Path_403" data-name="Path 403" d="M32.912,0S25.06,9.423,7,9.423V31.9A38.439,38.439,0,0,0,21.327,62.213a34.737,34.737,0,0,0,11.585,6.1,34.749,34.749,0,0,0,11.585-6.1A38.439,38.439,0,0,0,58.824,31.9V9.423C40.765,9.423,32.912,0,32.912,0Z" transform="translate(-7)" fill="#545766"/>
    <path id="Path_404" data-name="Path 404" d="M31.845,59.455a28.618,28.618,0,0,1-7.218-4.191A31.538,31.538,0,0,1,13,30.509V14.659A42.848,42.848,0,0,0,31.845,7.83Z" transform="translate(-5.933 1.392)" fill="#545766"/>
  </g>
</svg>
