<svg xmlns="http://www.w3.org/2000/svg" width="59.345" height="59.345" viewBox="0 0 59.345 59.345">
  <g id="Solid" transform="translate(-24 -24)">
    <path id="Path_458" data-name="Path 458" d="M166.168,153.965l-11.576-11.576a3.07,3.07,0,1,0-4.341,4.341l6.336,6.336H123.07a3.07,3.07,0,1,0,0,6.139h33.517l-6.336,6.336a3.07,3.07,0,1,0,4.341,4.341l11.576-11.576A3.07,3.07,0,0,0,166.168,153.965Z" transform="translate(-83.722 -102.463)" fill="#545766"/>
    <path id="Path_459" data-name="Path 459" d="M59.811,71.067a3.07,3.07,0,0,0-3.07,3.07v3.07h-26.6V30.139h26.6v3.07a3.07,3.07,0,1,0,6.139,0V29.116A5.116,5.116,0,0,0,57.765,24H29.116A5.116,5.116,0,0,0,24,29.116V78.229a5.116,5.116,0,0,0,5.116,5.116H57.765a5.116,5.116,0,0,0,5.116-5.116V74.136A3.07,3.07,0,0,0,59.811,71.067Z" fill="#545766"/>
  </g>
</svg>
