<svg id="text-file" xmlns="http://www.w3.org/2000/svg" width="36.356" height="50.641" viewBox="0 0 36.356 50.641">
  <g id="Group_308" data-name="Group 308" transform="translate(0 0)">
    <path id="Path_474" data-name="Path 474" d="M103.612,6.573H96.176L91.714.624a1.712,1.712,0,0,0-2.645,0L84.608,6.573H77.172a4.963,4.963,0,0,0-4.958,4.958V45.683a4.963,4.963,0,0,0,4.958,4.958h26.44a4.963,4.963,0,0,0,4.958-4.958V11.53A4.963,4.963,0,0,0,103.612,6.573Zm-13.22-2.2L97,13.183H93.7a1.653,1.653,0,0,0-1.653,1.653v6.059H88.739V14.835a1.653,1.653,0,0,0-1.653-1.653H83.782ZM80.477,27.5H91.014a1.653,1.653,0,1,1,0,3.305H80.477a1.653,1.653,0,1,1,0-3.305Zm19.83,16.525H80.477a1.653,1.653,0,1,1,0-3.305h19.83a1.653,1.653,0,0,1,0,3.305Zm0-6.61H80.477a1.653,1.653,0,1,1,0-3.305h19.83a1.653,1.653,0,0,1,0,3.305Zm0-6.61H97.624a1.653,1.653,0,0,1,0-3.305h2.683a1.653,1.653,0,0,1,0,3.305Z" transform="translate(-72.214 0.001)" fill="#545766"/>
  </g>
</svg>
