<svg id="translate" xmlns="http://www.w3.org/2000/svg" width="46.421" height="42.201" viewBox="0 0 46.421 42.201">
  <g id="Group_310" data-name="Group 310" transform="translate(0 0)">
    <g id="Group_309" data-name="Group 309">
      <path id="Path_476" data-name="Path 476" d="M25.046,48.922h0l-5.36-5.3.063-.063a36.967,36.967,0,0,0,7.828-13.779h6.182V25.553H18.99v-4.22H14.77v4.22H0v4.2H23.569a33.325,33.325,0,0,1-6.689,11.31,33.274,33.274,0,0,1-4.874-7.069H7.786a37.057,37.057,0,0,0,6.288,9.622l-10.73,10.6L6.33,57.2l10.55-10.55,6.562,6.562Z" transform="translate(0 -21.333)" fill="#545766"/>
      <path id="Path_477" data-name="Path 477" d="M248.381,192h-4.22l-9.5,25.321h4.22l2.374-6.33h10.023l2.374,6.33h4.22Zm-5.539,14.77,3.429-9.147,3.429,9.147Z" transform="translate(-211.456 -175.12)" fill="#545766"/>
    </g>
  </g>
</svg>
