<svg id="visibility" xmlns="http://www.w3.org/2000/svg" width="46.421" height="31.651" viewBox="0 0 46.421 31.651">
  <g id="Group_312" data-name="Group 312" transform="translate(0 0)">
    <g id="Group_311" data-name="Group 311">
      <path id="Path_479" data-name="Path 479" d="M177,170.667a6.33,6.33,0,1,0,6.33,6.33A6.335,6.335,0,0,0,177,170.667Z" transform="translate(-153.787 -161.172)" fill="#545766"/>
      <path id="Path_480" data-name="Path 480" d="M23.211,74.667A24.955,24.955,0,0,0,0,90.492a24.934,24.934,0,0,0,46.421,0A24.944,24.944,0,0,0,23.211,74.667Zm0,26.375a10.55,10.55,0,1,1,10.55-10.55A10.554,10.554,0,0,1,23.211,101.042Z" transform="translate(0 -74.667)" fill="#545766"/>
    </g>
  </g>
</svg>
