<svg xmlns="http://www.w3.org/2000/svg" width="51.925" height="57.544" viewBox="0 0 51.925 57.544">
  <g id="web-design" transform="translate(-25)">
    <path id="Path_501" data-name="Path 501" d="M57.594,0H26.686A1.686,1.686,0,0,0,25,1.686V6.743H57.594Z" fill="#545766"/>
    <path id="Path_502" data-name="Path 502" d="M351.743,1.686A1.686,1.686,0,0,0,350.058,0H345V6.743h6.743Z" transform="translate(-284.035)" fill="#545766"/>
    <path id="Path_503" data-name="Path 503" d="M130,150h19.107v3.484H130Z" transform="translate(-93.199 -133.141)" fill="#545766"/>
    <path id="Path_504" data-name="Path 504" d="M57.111,117.2l10.6-10.6V90H25v33.942a1.686,1.686,0,0,0,1.686,1.686h19.4a13.01,13.01,0,0,1,2.88-4.872,11.308,11.308,0,0,1,8.143-3.555ZM33.429,95.058a1.686,1.686,0,0,1,1.686-1.686H57.594a1.686,1.686,0,0,1,1.686,1.686v6.856a1.686,1.686,0,0,1-1.686,1.686H35.115a1.686,1.686,0,0,1-1.686-1.686Zm1.686,12.026H57.594a1.686,1.686,0,1,1,0,3.372H35.115a1.686,1.686,0,0,1,0-3.372ZM46.354,117.2H35.115a1.686,1.686,0,1,1,0-3.372H46.354a1.686,1.686,0,1,1,0,3.372Z" transform="translate(0 -79.885)" fill="#545766"/>
    <path id="Path_505" data-name="Path 505" d="M361.3,263.268a5.057,5.057,0,0,0-7.153,0l-7.1,7.1a11.86,11.86,0,0,1,7.152,7.153l7.1-7.1a5.057,5.057,0,0,0,0-7.152Z" transform="translate(-285.853 -232.363)" fill="#545766"/>
    <path id="Path_506" data-name="Path 506" d="M227.21,362a7.968,7.968,0,0,0-5.821,2.509,10.068,10.068,0,0,0-2.6,5.717,20.193,20.193,0,0,1-2.083,6.133,1.686,1.686,0,0,0,1.476,2.5h9.024a8.429,8.429,0,1,0,0-16.859Z" transform="translate(-169.977 -321.314)" fill="#545766"/>
  </g>
</svg>
