<?xml version="1.0"?>
<svg xmlns="http://www.w3.org/2000/svg" xmlns:xlink="http://www.w3.org/1999/xlink" xmlns:svgjs="http://svgjs.com/svgjs" version="1.1" width="512" height="512" x="0" y="0" viewBox="0 0 512 512" style="enable-background:new 0 0 512 512" xml:space="preserve" class=""><circle r="256" cx="256" cy="256" fill="#ffefd8" shape="circle"/><g transform="matrix(0.7,0,0,0.7,117.91523437500001,71.80000000000001)"><path xmlns="http://www.w3.org/2000/svg" d="m279.652344 122.015625c-8.597656 0-15.566406-6.96875-15.566406-15.566406v-106.449219h-129.894532c-8.597656 0-15.570312 6.96875-15.570312 15.570312v71.914063h42.390625c4.1875 0 8.148437 1.695313 11.023437 4.566406l122.015625 122.019531c2.738281 2.734376 4.566407 6.6875 4.566407 11v192.84375h71.914062c8.601562 0 15.570312-6.972656 15.570312-15.570312v-280.328125zm0 0" fill="#fb9905" data-original="#000000" style="" class=""/><path xmlns="http://www.w3.org/2000/svg" d="m295.222656 22.015625v68.863281h68.863282zm0 0" fill="#fb9905" data-original="#000000" style="" class=""/><path xmlns="http://www.w3.org/2000/svg" d="m145.453125 225.070312v-106.449218h-129.882813c-8.601562 0-15.570312 6.972656-15.570312 15.570312v362.238282c0 8.601562 6.96875 15.570312 15.570312 15.570312h236.339844c8.597656 0 15.570313-6.96875 15.570313-15.570312v-255.789063h-106.460938c-8.59375 0-15.566406-6.964844-15.566406-15.570313zm0 0" fill="#fb9905" data-original="#000000" style="" class=""/><path xmlns="http://www.w3.org/2000/svg" d="m176.589844 209.5h68.863281l-68.863281-68.851562zm0 0" fill="#fb9905" data-original="#000000" style="" class=""/></g></svg>
