<svg xmlns="http://www.w3.org/2000/svg" width="32.29" height="22.016" viewBox="0 0 32.29 22.016">
  <g id="Group_4" data-name="Group 4" transform="translate(0 0)">
    <g id="Group_3" data-name="Group 3">
      <path id="Path_20" data-name="Path 20" d="M175.588,170.667a4.921,4.921,0,1,0,4.921,4.921A4.925,4.925,0,0,0,175.588,170.667Z" transform="translate(-159.443 -164.58)" fill="#bcbccb"/>
      <path id="Path_21" data-name="Path 21" d="M16.145,74.667A17.358,17.358,0,0,0,0,85.675a17.343,17.343,0,0,0,32.29,0A17.351,17.351,0,0,0,16.145,74.667Zm0,18.346a7.339,7.339,0,1,1,7.339-7.338A7.341,7.341,0,0,1,16.145,93.013Z" transform="translate(0 -74.667)" fill="#bcbccb"/>
    </g>
  </g>
</svg>
