<svg xmlns="http://www.w3.org/2000/svg" xmlns:xlink="http://www.w3.org/1999/xlink" width="716.174" height="70" viewBox="0 0 716.174 70">
  <defs>
    <linearGradient id="linear-gradient" x1="0.5" x2="0.5" y2="1" gradientUnits="objectBoundingBox">
      <stop offset="0" stop-color="#004c8f"/>
      <stop offset="1" stop-color="#00004c"/>
    </linearGradient>
  </defs>
  <g id="Path_390" data-name="Path 390" transform="translate(91.901)" fill="#cfe3fb">
    <path d="M 586.8271484375 69.5 L 293.1083374023438 69.5 L -7.805426120758057 69.5 L -64.99309539794922 69.5 L -88.63901519775391 69.5 L 19.8119068145752 35.45199966430664 L 19.81457328796387 35.45116806030273 L 19.81715774536133 35.45024871826172 C 19.88415718078613 35.42841720581055 26.66165733337402 33.22833251953125 39.16232299804688 29.98908424377441 C 50.69948959350586 26.9995002746582 69.60957336425781 22.48841667175293 94.17840576171875 17.97483253479004 C 121.7926559448242 12.90174961090088 150.7804870605469 8.85966682434082 180.3366546630859 5.960750102996826 C 217.2812347412109 2.337249994277954 255.2231597900391 0.5 293.1083374023438 0.5 L 586.8271484375 0.5 L 586.8271484375 69.5 Z" stroke="none"/>
    <path d="M 293.1083374023438 1 C 255.2451629638672 1 217.3254089355469 2.835914611816406 180.4023132324219 6.456748962402344 C 150.8628234863281 9.353500366210938 121.8913269042969 13.39274978637695 94.29275512695313 18.46216583251953 C 69.73739624023438 22.97258377075195 50.83773803710938 27.48066711425781 39.30682373046875 30.46816635131836 C 26.81289672851563 33.70516586303711 20.03900146484375 35.90383148193359 19.97207641601563 35.92566680908203 L 19.96682739257813 35.92733383178711 L 19.96157836914063 35.92900085449219 L -85.3773193359375 69 L -64.99310302734375 69 L -7.805419921875 69 L 293.1083374023438 69 L 586.3271484375 69 L 586.3271484375 1 L 293.1083374023438 1 M 293.1083374023438 0 C 364.2374267578125 0 587.3271484375 0 587.3271484375 0 L 587.3271484375 70 C 587.3271484375 70 459.2984008789063 70 293.1083374023438 70 C 218.4894104003906 70 -7.805419921875 70 -7.805419921875 70 L -64.99310302734375 70 L -91.9010009765625 70 L 19.66207885742188 34.97491836547852 C 19.66207885742188 34.97491836547852 126.9182434082031 0 293.1083374023438 0 Z" stroke="none" fill="#cfe3fb"/>
  </g>
  <g id="Group_272" data-name="Group 272" transform="translate(-884.818 2)">
    <g id="Path_389" data-name="Path 389" transform="translate(1023.322 -2)" fill="#95c7ff">
      <path d="M 570.2239990234375 69.5 L 283.6971435546875 69.5 L -9.861031532287598 69.5 L -65.65086364746094 69.5 L -88.71506500244141 69.5 L 17.08821868896484 35.4509162902832 L 17.09088516235352 35.45000076293945 L 17.09355163574219 35.44916534423828 C 17.15888595581055 35.42724990844727 23.77055168151855 33.22724914550781 35.96530151367188 29.98816680908203 C 47.22021865844727 26.99866676330566 65.66754913330078 22.48766708374023 89.63521575927734 17.97416687011719 C 116.5737152099609 12.90133380889893 144.8522186279297 8.859333038330078 173.6852111816406 5.960583209991455 C 209.7257232666016 2.337249994277954 246.7390594482422 0.5 283.6971435546875 0.5 L 570.2239990234375 0.5 L 570.2239990234375 69.5 Z" stroke="none"/>
      <path d="M 283.6971435546875 1 C 246.7615509033203 1 209.7708129882813 2.835746765136719 173.7523803710938 6.456333160400391 C 144.9364624023438 9.352916717529297 116.6747131347656 13.3918342590332 89.75222778320313 18.46091842651367 C 65.79837036132813 22.97108459472656 47.36163330078125 27.47883224487305 36.11322021484375 30.46616744995117 C 23.92529296875 33.70299911499023 17.3173828125 35.9015007019043 17.25204467773438 35.92333221435547 L 17.2467041015625 35.92516708374023 L 17.24139404296875 35.92683410644531 L -85.52935791015625 69 L -65.65087890625 69 L -9.86102294921875 69 L 283.6971435546875 69 L 569.7239990234375 69 L 569.7239990234375 1 L 283.6971435546875 1 M 283.6971435546875 0 C 353.0874633789063 0 570.7239990234375 0 570.7239990234375 0 L 570.7239990234375 70 C 570.7239990234375 70 445.8247985839844 70 283.6971435546875 70 C 210.9021301269531 70 -9.86102294921875 70 -9.86102294921875 70 L -65.65087890625 70 L -91.90106201171875 70 L 16.93505859375 34.97491836547852 C 16.93505859375 34.97491836547852 121.5693969726563 0 283.6971435546875 0 Z" stroke="none" fill="#95c7ff"/>
    </g>
  </g>
  <g id="Path_1" data-name="Path 1" transform="translate(186.95)" fill="url(#linear-gradient)">
    <path d="M 528.724365234375 69.5 L 260.1737365722656 69.5 L -14.99911785125732 69.5 L -67.29488372802734 69.5 L -88.90469360351563 69.5 L 10.28111362457275 35.44776916503906 L 10.28388214111328 35.44676971435547 L 10.28665161132813 35.44577026367188 C 10.34788227081299 35.42392349243164 16.54503631591797 33.22415542602539 27.97526741027832 29.98530769348145 C 38.52449798583984 26.9960765838623 55.81518936157227 22.48553848266602 78.28018951416016 17.97246170043945 C 103.5295715332031 12.9000768661499 130.0348815917969 8.858538627624512 157.0600433349609 5.960076808929443 C 190.840576171875 2.336999893188477 225.5330352783203 0.5 260.1737365722656 0.5 L 528.724365234375 0.5 L 528.724365234375 69.5 Z" stroke="none"/>
    <path d="M 260.1737060546875 1 C 225.5569610595703 1 190.8885040283203 2.83538818359375 157.13134765625 6.455230712890625 C 130.1243591308594 9.351230621337891 103.63671875 13.38938522338867 78.40426635742188 18.45753860473633 C 55.95388793945313 22.96684646606445 38.67434692382813 27.47377014160156 28.1319580078125 30.46053695678711 C 16.70904541015625 33.69684600830078 10.51580810546875 35.89492416381836 10.45458984375 35.91677093505859 L 10.44894409179688 35.91876983642578 L 10.44342041015625 35.92069244384766 L -85.9085693359375 69 L -67.29489135742188 69 L -14.99911499023438 69 L 260.1737060546875 69 L 528.2242431640625 69 L 528.2242431640625 1 L 260.1737060546875 1 M 260.1737060546875 0 C 325.2182006835938 0 529.2242431640625 0 529.2242431640625 0 L 529.2242431640625 70 C 529.2242431640625 70 412.1474304199219 70 260.1737060546875 70 C 191.9378051757813 70 -14.99911499023438 70 -14.99911499023438 70 L -67.29489135742188 70 L -91.90106201171875 70 L 10.11871337890625 34.97484588623047 C 10.11871337890625 34.97484588623047 108.199951171875 0 260.1737060546875 0 Z" stroke="none" fill="#004c8f"/>
  </g>
</svg>
